<?xml version="1.0" standalone="no"?>
<!DOCTYPE svg PUBLIC "-//W3C//DTD SVG 20010904//EN"
 "http://www.w3.org/TR/2001/REC-SVG-20010904/DTD/svg10.dtd">
<svg version="1.0" xmlns="http://www.w3.org/2000/svg"
 width="152.000000pt" height="152.000000pt" viewBox="0 0 152.000000 152.000000"
 preserveAspectRatio="xMidYMid meet">
<metadata>
Created by potrace 1.11, written by Peter Selinger 2001-2013
</metadata>
<g transform="translate(0.000000,152.000000) scale(0.100000,-0.100000)"
fill="#000000" stroke="none">
<path d="M698 1352 c-3 -12 -3 -20 1 -17 5 2 17 -3 27 -11 10 -9 13 -13 7 -9
-25 12 -53 14 -59 3 -4 -7 -14 -2 -26 13 -12 15 -16 18 -12 6 5 -13 2 -16 -10
-11 -9 3 -14 9 -12 13 2 3 -11 7 -30 7 -35 1 -40 -5 -8 -10 10 -2 20 -9 22
-17 2 -9 0 -10 -5 -4 -4 6 -16 11 -25 12 -34 1 -39 3 -35 11 3 4 -8 7 -24 7
-15 1 -26 -2 -23 -5 3 -3 11 -5 17 -5 5 0 12 -7 14 -15 3 -10 2 -11 -4 -4 -4
6 -16 10 -25 8 -10 -1 -18 2 -18 7 0 5 -5 9 -11 9 -5 0 -7 -5 -3 -11 3 -6 -9
-3 -27 7 -25 12 -31 13 -22 3 10 -12 6 -14 -20 -13 -50 2 -55 3 -70 19 -13 13
-16 13 -21 -1 -3 -8 -2 -13 3 -10 4 3 16 0 26 -8 15 -11 16 -13 1 -13 -9 0
-16 4 -16 8 0 4 -9 6 -20 4 -11 -2 -18 0 -15 4 3 5 -2 11 -9 14 -17 7 -39 -16
-28 -29 4 -4 -2 -2 -12 6 -11 8 -20 13 -22 10 -1 -3 -6 -1 -11 4 -5 5 -3 6 5
2 6 -4 12 -2 12 3 0 20 -20 11 -30 -11 -9 -23 -9 -23 -10 2 0 19 -2 22 -9 10
-6 -8 -7 -19 -3 -25 3 -5 -1 -4 -10 2 -8 7 -18 9 -22 5 -4 -4 -17 -7 -28 -7
-12 0 -23 -7 -25 -15 -4 -13 -3 -13 6 0 16 22 13 8 -5 -28 -8 -18 -12 -37 -8
-44 5 -8 1 -9 -12 -5 -18 7 -18 7 0 -8 14 -11 16 -15 5 -15 -12 0 -12 -2 0 -9
11 -7 11 -9 0 -14 -10 -4 -10 -6 -1 -6 6 -1 12 -10 12 -21 0 -14 -5 -18 -17
-14 -17 5 -17 5 -1 -6 19 -11 26 -36 8 -25 -5 3 -10 1 -10 -4 0 -6 5 -11 10
-11 6 0 10 -5 10 -11 0 -5 -6 -7 -12 -3 -10 6 -10 5 -1 -7 9 -11 9 -19 2 -26
-8 -8 -8 -13 0 -17 6 -4 11 -12 11 -17 0 -6 -6 -7 -12 -3 -8 5 -7 0 2 -11 14
-17 13 -18 -5 -12 -20 7 -20 7 -1 -8 14 -11 16 -15 5 -15 -12 0 -12 -2 1 -10
13 -9 13 -10 0 -10 -10 0 -11 -3 -4 -8 13 -8 15 -74 2 -66 -4 3 -8 0 -8 -5 0
-6 5 -11 10 -11 6 0 10 -5 10 -11 0 -5 -6 -7 -13 -3 -9 6 -9 5 0 -7 9 -11 9
-19 2 -26 -8 -8 -8 -13 0 -17 6 -4 11 -12 11 -17 0 -6 -6 -7 -12 -3 -8 5 -7 0
2 -11 14 -17 13 -18 -5 -12 -20 7 -20 7 -1 -8 14 -11 16 -15 5 -15 -12 0 -12
-2 1 -10 13 -9 13 -10 0 -10 -10 0 -11 -3 -4 -8 13 -8 15 -74 2 -66 -4 3 -8 0
-8 -5 0 -6 5 -11 10 -11 6 0 10 -5 10 -11 0 -5 -6 -7 -13 -3 -9 6 -9 5 0 -7 9
-11 9 -19 2 -26 -8 -8 -8 -13 0 -17 6 -4 11 -12 11 -17 0 -6 -6 -7 -12 -3 -8
5 -7 0 2 -11 14 -17 13 -18 -5 -12 -20 7 -20 7 -1 -8 14 -11 16 -15 5 -15 -12
0 -12 -2 1 -10 13 -9 13 -10 0 -10 -10 0 -11 -3 -4 -8 13 -8 15 -74 2 -66 -4
3 -8 0 -8 -5 0 -6 5 -11 10 -11 6 0 10 -5 10 -11 0 -5 -6 -7 -12 -3 -10 6 -10
5 -1 -7 9 -11 9 -19 2 -26 -8 -8 -8 -13 0 -17 6 -4 11 -12 11 -17 0 -6 -4 -8
-8 -5 -5 3 -9 -1 -9 -9 0 -8 3 -12 7 -10 4 2 6 -13 6 -35 -1 -35 2 -40 24 -44
14 -3 323 -5 688 -4 l662 1 1 28 c2 38 3 41 13 58 6 10 5 12 -2 7 -19 -12 -14
12 6 24 16 11 16 11 0 6 -12 -3 -18 0 -18 10 0 8 5 12 11 8 10 -6 7 4 -13 37
-1 3 4 14 12 24 9 11 10 16 3 11 -20 -11 -15 12 5 24 16 11 16 11 0 6 -12 -3
-18 0 -18 10 0 9 5 12 12 8 7 -4 8 -3 4 4 -12 21 -15 51 -5 58 6 4 6 10 -1 19
-11 14 -9 42 4 64 6 10 5 12 -2 7 -19 -12 -14 12 6 24 16 11 16 11 0 6 -12 -3
-18 0 -18 10 0 8 5 12 11 8 8 -4 8 -1 2 12 -11 23 -11 34 1 53 6 10 5 12 -2 7
-19 -12 -14 12 6 24 16 11 16 11 0 6 -12 -3 -18 0 -18 10 0 9 5 12 12 8 7 -4
8 -3 4 4 -12 21 -15 51 -5 58 6 4 6 10 -1 19 -11 14 -9 42 4 64 6 10 5 12 -2
7 -19 -12 -14 12 6 24 16 11 16 11 0 6 -12 -3 -18 0 -18 10 0 8 5 12 11 8 8
-4 8 -1 2 12 -11 23 -11 34 1 53 6 10 5 12 -2 7 -19 -12 -14 12 6 24 16 11 16
11 0 6 -12 -3 -18 0 -18 10 0 8 5 12 11 8 8 -4 8 -1 2 12 -11 22 -11 34 0 51
4 6 3 14 -2 18 -6 3 -9 26 -7 50 1 25 0 45 -3 45 -3 0 -11 11 -18 25 -8 18 -8
25 0 25 6 0 2 6 -9 14 -12 9 -23 11 -28 5 -13 -12 -29 -12 -21 0 3 6 -6 6 -24
1 -19 -5 -33 -4 -41 3 -10 9 -11 8 -6 -7 5 -14 3 -16 -6 -9 -7 6 -36 10 -65 9
-28 -1 -50 1 -48 4 2 3 -4 6 -13 6 -9 1 -26 5 -37 9 l-20 8 20 -16 20 -16 -20
4 c-11 2 -24 4 -28 4 -5 1 -6 4 -4 9 3 4 -10 8 -29 8 -35 1 -40 -5 -8 -10 10
-2 20 -9 22 -17 2 -9 0 -10 -5 -4 -4 6 -16 11 -25 12 -34 1 -39 3 -35 11 3 4
-8 7 -24 7 -15 1 -26 -2 -23 -5 3 -3 11 -5 16 -5 6 0 13 -7 15 -15 3 -10 2
-11 -4 -4 -4 6 -24 10 -43 9 -35 -2 -69 9 -81 27 -3 5 -9 2 -12 -7 -4 -9 -3
-14 2 -11 4 3 16 0 26 -8 15 -11 16 -13 1 -13 -9 0 -16 4 -16 8 0 4 -9 6 -20
4 -11 -2 -18 0 -15 4 3 5 -2 11 -10 15 -8 3 -17 0 -21 -6 -5 -7 -2 -8 7 -3 8
5 11 4 6 -1 -22 -23 -103 -5 -109 25 -3 12 -5 10 -10 -7z m707 -32 c3 -5 1
-10 -4 -10 -6 0 -11 5 -11 10 0 6 2 10 4 10 3 0 8 -4 11 -10z"/>
<path d="M1180 1360 c0 -5 5 -10 11 -10 5 0 7 -5 3 -12 -4 -7 -3 -8 5 -4 9 6
9 11 0 22 -14 17 -19 18 -19 4z"/>
<path d="M115 1339 c-4 -6 -5 -12 -2 -15 2 -3 7 2 10 11 7 17 1 20 -8 4z"/>
<path d="M350 1338 c0 -3 9 -6 20 -5 11 1 20 5 20 9 0 3 -9 6 -20 5 -11 -1
-20 -5 -20 -9z"/>
<path d="M750 1338 c0 -3 9 -6 20 -5 11 1 20 5 20 9 0 3 -9 6 -20 5 -11 -1
-20 -5 -20 -9z"/>
<path d="M910 1338 c0 -3 9 -6 20 -5 11 1 20 5 20 9 0 3 -9 6 -20 5 -11 -1
-20 -5 -20 -9z"/>
<path d="M1245 1339 c-3 -4 2 -6 10 -5 21 3 28 13 10 13 -9 0 -18 -4 -20 -8z"/>
<path d="M660 1329 c0 -5 5 -7 10 -4 6 3 10 8 10 11 0 2 -4 4 -10 4 -5 0 -10
-5 -10 -11z"/>
</g>
</svg>
